<svg xmlns="http://www.w3.org/2000/svg" viewBox="0.0 0.0 24.0 24.0" height="200px" width="200px"><path fill="none" stroke="black" stroke-width=".3" stroke-opacity="1.0" filling="0" d="M21.43920135498047 8.7 L25.413599014282227 8.3 C23.52936553955078 10.1 21.6 10.7 19.1 10.9 L12.777600288391113 10.9 C15.096192359924316 11.6 16.8 12.8 18 15 C18.99477195739746 16.9 19.2 18.9 18.9 20.7 C18.487110137939453 22.6 17.5 24.3 16.1 25.5 C14.748054504394531 26.7 12.9 27.5 10.8 27.4 C8.111927032470703 27.3 6.2 26.1 5 23.7 C4.296696662902832 22.3 4.3 20.6 4.9 19.1 C5.4751176834106445 17.6 6.6 16.4 8.2 16.1 C9.502497673034668 15.8 11 16.2 12 17 C13.0064697265625 17.9 13.6 19.2 13 20.6 C12.582005500793457 21.7 11.9 21.8 11 22.5 L11.373600006103516 21.8 C11.916072845458984 20.4 12.1 18.6 11 17.4 C9.159679412841797 15.3 6.1 17.4 5.6 19.6 C4.895456314086914 22.2 6.3 24.7 8.3 25.9 C10.28054428100586 27.1 12.9 27.1 14.7 24.7 C15.831122398376465 23.2 16.3 21 16.1 18.8 C16.00187873840332 16.6 15.3 14.5 14.2 13.1 C13.200139999389648 11.9 11.8 11.2 10.3 11 C8.86797046661377 10.8 7.3 11.1 6.1 11.9 C5.067636013031006 12.7 4.5 14 3.9 15.1 L3.94320011138916 15.1 C4.216710090637207 13 5.1 11.5 6.3 10.4 C7.612619400024414 9.4 9.3 8.9 11.4 8.8 L16.395599365234375 8.7 L21.43920135498047 8.7"></path></svg>