<svg xmlns="http://www.w3.org/2000/svg" viewBox="0.0 0.0 24.0 24.0" height="200px" width="200px"><path fill="none" stroke="black" stroke-width=".3" stroke-opacity="1.0" filling="0" d="M13.382400512695312 5.7 L15.607200622558594 11.3 L17.832000732421875 17 L20.056800842285156 22.6 L16.42799949645996 22.6 L14.829599380493164 18.6 L8.306400299072266 18.6 L6.729599952697754 22.6 L3.0792007446289062 22.6 L5.3040008544921875 17 L7.528800964355469 11.3 L9.753600120544434 5.7 L13.382400512695312 5.7"></path> <path fill="none" stroke="black" stroke-width=".3" stroke-opacity="1.0" filling="0" d="M13.31760025024414 5.8 L15.520801544189453 11.4 L17.724000930786133 17 L19.927200317382812 22.6 L16.471200942993164 22.6 L14.894399642944336 18.5 L8.241600036621094 18.5 L6.66480016708374 22.6 L3.2088003158569336 22.6 L5.4048004150390625 17 L7.600800514221191 11.4 L9.79680061340332 5.8 L13.31760025024414 5.8"></path> <path fill="none" stroke="black" stroke-width=".3" stroke-opacity="1.0" filling="0" d="M9.969600677490234 14.8 L11.568000793457031 10.7 L13.166399955749512 14.8 L9.969600677490234 14.8"></path> <path fill="none" stroke="black" stroke-width=".3" stroke-opacity="1.0" filling="0" d="M9.731999397277832 15 L11.568000793457031 10.3 L13.404000282287598 15 L9.731999397277832 15"></path> <path fill="none" stroke="black" stroke-width=".3" stroke-opacity="1.0" filling="0" d="M9.62399959564209 15 L11.568000793457031 10.1 L13.51200008392334 15 L9.62399959564209 15"></path> <path fill="none" stroke="black" stroke-width=".3" stroke-opacity="1.0" filling="0" d="M13.619999885559082 15.1 L9.515999794006348 15.1 L11.568000793457031 9.9 L13.619999885559082 15.1"></path> <path fill="none" stroke="black" stroke-width=".3" stroke-opacity="1.0" filling="0" d="M16.514400482177734 22.5 L14.937600135803223 18.5 L8.198400497436523 18.5 L6.621600151062012 22.5 L3.2952003479003906 22.5 L5.476800441741943 16.9 L7.658400535583496 11.4 L9.84000015258789 5.8 L13.27440071105957 5.8 L15.463200569152832 11.4 L17.652000427246094 16.9 L19.84079933166504 22.5 L16.514400482177734 22.5"></path> <path fill="none" stroke="black" stroke-width=".3" stroke-opacity="1.0" filling="0" d="M20.27280044555664 22.8 L16.31999969482422 22.8 L14.721599578857422 18.8 L8.414400100708008 18.8 L6.815999984741211 22.8 L2.8632001876831055 22.8 L5.124000072479248 17 L7.384799957275391 11.3 L9.645599365234375 5.5 L13.490400314331055 5.5 L15.751201629638672 11.3 L18.012001037597656 17 L20.27280044555664 22.8"></path></svg>