<svg xmlns="http://www.w3.org/2000/svg" viewBox="0.0 0.0 24.0 24.0" height="200px" width="200px"><path fill="none" stroke="black" stroke-width=".3" stroke-opacity="1.0" filling="0" d="M12.950399398803711 9.9 L12.950399398803711 9.9 C12.584254264831543 9.5 12.1 8.8 11.5 8.5 L11.54640007019043 8.5 C10.878564834594727 10.1 11.2 12 11.2 13.8 L11.200799942016602 13.8 C11.369620323181152 13.7 12.6 13.1 13.1 13.4 C13.630074501037598 13.7 13.4 14.3 12.9 14.5 C12.37501335144043 14.8 11.8 15 11.2 15.2 L11.222399711608887 15.2 C11.30022144317627 17.1 11.4 19 11.7 20.9 C11.747297286987305 21.6 12.2 22.4 11.8 23 C11.63105583190918 23.3 11.2 23.4 10.9 23.2 C10.361083030700684 22.8 10.5 21.9 10.4 21.2 C10.117802619934082 19.4 10 17.6 9.9 15.7 L9.127199172973633 16.1 C8.257882118225098 16.1 8 15.6 8.6 14.9 L9.904800415039062 14.3 C9.89605712890625 13.6 9.7 11.9 9.8 10.3 C9.853529930114746 8.8 10.2 7.4 11.4 7.2 C12.351324081420898 7 13.5 8.5 13.9 9.1 C14.537846565246582 9.9 13.5 10.2 13 9.9 L12.950399398803711 9.9"></path></svg>