<svg xmlns="http://www.w3.org/2000/svg" viewBox="0.0 0.0 24.0 24.0" height="200px" width="200px"><path fill="none" stroke="black" stroke-width=".3" stroke-opacity="1.0" filling="0" d="M17.788799285888672 13 L17.788799285888672 13 C17.664173126220703 15 16.3 17.1 15.5 19.1 C14.71452522277832 21.1 14.4 23.1 16.4 24.9 C17.24986457824707 25.6 17.7 25.8 18.7 26.3 L18.695999145507812 26.3 C18.627918243408203 26.5 18.3 27.7 17.8 27.8 C15.859231948852539 28 13.4 24.2 13.2 22.6 C12.990283966064453 21.3 13.5 20.1 14.2 18.9 C14.856595993041992 17.8 15.7 16.6 16.1 15.5 L10.293600082397461 15.5 C9.242897033691406 15.6 8.7 15.7 8.1 16.5 L8.11199951171875 16.5 C8.120443344116211 14.6 8.5 13.9 10.4 13.6 L15.736800193786621 13.6 C16.437780380249023 13.4 17.1 13.3 17.8 13 L17.788799285888672 13"></path></svg>