<svg xmlns="http://www.w3.org/2000/svg" viewBox="0 0 24 24"><path d="M4 20 L12 4 L20 20" fill="none" stroke="black" stroke-width="0.5"/> <path fill="none" stroke-width=".3" stroke-opacity="1.0" filling="0" d="M12.084375381469727 7.1 L12.084375381469727 7.1 C12.506250381469727 7.2 12.9 7.2 13.1 7.6 C14.806192398071289 8.8 14 11.4 13.2 13.1 L13.181249618530273 13.1 C15.194561004638672 13.2 16.4 14.9 15.2 16.9 C14.35781192779541 18.3 12.8 19.5 11.1 20.2 L11.071874618530273 20.2 C10.611720085144043 19.7 10 19.1 9.6 18.3 L8.287500381469727 16.9 C8.157307624816895 14.9 8.9 13.2 10.6 12.8 L10.649999618530273 12.8 C10.882031440734863 13.2 11.4 13.6 11.8 14 L11.831250190734863 14 C13.095354080200195 15.3 13.5 13.5 14.9 14.4 C15.353721618652344 14.6 15.8 15.1 16.2 15.5 L16.21875 15.5 C16.049999237060547 15.6 15.8 15.8 15.6 16 L15.206250190734863 16.9 C13.76063346862793 18 12.2 17.9 10.6 16.9 L10.649999618530273 16.9 C9.832853302001953 15.1 8.3 13.3 6.8 11.9 L6.768750190734863 11.9 C7.580522155761719 11.3 8.4 10.7 9.3 10.5 L10.565625190734863 10.5 C12.54926300048828 10.4 14.5 10.6 16.6 11.2 L16.556249618530273 11.2"></path></svg>