<svg xmlns="http://www.w3.org/2000/svg" viewBox="0 0 24 24"><circle cx="12" cy="12" r="10" fill="none" stroke="black" stroke-width="0.5"/><circle cx="9" cy="10" r="1" fill="black"/> <path fill="none" stroke-width=".3" stroke-opacity="1.0" filling="0" d="M6.178125381469727 33.3 L6.178125381469727 33.3 C6.065625190734863 33.3 5.9 32 5.8 33.1 C4.451761779785156 32.6 4.8 28.5 6.9 29.1 C8.452821731567383 29.7 11 29.4 12.7 28.6 C14.15371322631836 27.7 15.5 26.4 16.5 24.9 C17.484024047851562 23.4 18.1 21.7 18.7 20 L19.171875 20.1 L18.328125 23 C17.179492950439453 24.3 15.9 25.4 14.1 26.1 C12.351737976074219 26.7 10.7 27.1 8.9 27.1 C7.334529876708984 27.1 5.9 27 4.4 26.2 C3.18191909790039 25.4 2.3 24.5 1.2 23.2 C-0.0745189094543457 21.8 0.2 20.2 1.2 18.7 C2.150125503540039 17.1 3.4 15.6 5.1 14.8 C6.086601257324219 14.1 7.8 14.2 9.1 14.2 L8.962499618530273 14.1 C8.961028099060059 14.5 8.9 14.9 8.9 15.3 L8.878125190734863 15.3 C7.189217567443848 14.3 5.7 13.6 4.4 12.5 C2.967334747314453 11.4 2.5 9.8 3.2 8.1 C4.026425361633301 6.5 6 6.8 7.3 7.2 L7.275000095367432 7.2"></path> <path fill="none" stroke="black" stroke-width=".3" stroke-opacity="1.0" filling="0" d="M13.603124618530273 8.4 L13.603124618530273 8.4 C14.042511936187988 9.2 14.4 10 14.1 10.8 C13.286553382873535 12.2 11.4 12.2 10 10.8 C8.702184295654297 9.7 8.7 9.2 9.3 8.4 L9.300000190734863 8.4"></path></svg>