<svg xmlns="http://www.w3.org/2000/svg" viewBox="0 0 24 24"><circle cx="8" cy="12" r="4" fill="none" stroke="black" stroke-width="0.5"/><circle cx="16" cy="12" r="4" fill="none" stroke="black" stroke-width="0.5"/> <path fill="none" stroke-width=".3" stroke-opacity="1.0" filling="0" d="M18.209999084472656 24.1 L18.209999084472656 24.1 C17.190902709960938 25.6 16.3 25.7 15.6 24.4 C15.09743881225586 23.4 15.4 21.2 14.2 20.3 C13.37980842590332 19.9 13.1 19.9 12.0 19.3 C10.676826477050781 18.4 9.8 18.4 8.4 17.2 C6.702885627746582 15.8 6.4 14.3 6.5 12.6 C6.570417404174805 10.9 7.5 9.2 9.1 8.2 C10.716527938842773 7.2 12.8 7.1 14.1 8.2 C15.428105354309082 9.2 16.1 10.8 16.1 12.3 C16.100133895874023 13.8 15.3 15.3 14.3 16.5 C13.322574615478519 17.9 11.8 18.9 10.1 19.8 C8.481746673583984 20.7 7.1 21.9 5.4 22.3 L5.390400409698486 22.3 C5.386800289154053 20.2 5.4 17.9 5.4 15.7 C5.3848676681518555 13.6 5.3 11.6 5.3 9.5 L5.314800262451172 9.5"></path></svg>