<svg xmlns="http://www.w3.org/2000/svg" viewBox="0 0 24 24"> <path fill="none" stroke="black" stroke-width=".3" stroke-opacity="1.0" filling="0" d="M14.81879997253418 14 L14.81879997253418 14 C14.458868789672852 15.4 13.6 16.9 12.3 17.9 C10.951964378356934 19 10.1 20 8.3 21.1 L8.209199905395508 21.1 C8.482864379882812 20.2 8.7 19.3 9 18.3 L9.051599502563477 18.1 C9.096541404724121 16.9 9.4 15.5 9.5 14.2 L8.814000129699707 9.8 C9.0609130859375 9.1 9.3 7.4 10.2 6.7 C11.13172721862793 5.6 12 6.8 12.2 7.9 C12.39884567260742 9.2 12.4 10.5 12.4 11.7 C12.35440922317881 12.4 11.5 14.8 11.5 15.4 C11.51533317565918 16.5 12 17.5 12.2 18.3 C12.551506996154785 19.6 12.9 20.9 13.5 22.1 C14.139566421508789 23.3 15 24.2 16 25 C16.911033630371094 25.9 18.4 26.7 19.7 27.7 L20.93164825439453 27.7 C22.220603942871094 27.8 23 27.7 24 27.6 L23.99880027770996 27.6"></path></svg>