<svg xmlns="http://www.w3.org/2000/svg" viewBox="0 0 24 24"> <path fill="none" height="200px" width="200px"><path fill="none" stroke="black" stroke-width=".3" stroke-opacity="1.0" filling="0" d="M8.846400260925293 15.9 L8.846400260925293 15.9 C9.222232818603516 16.2 9.7 16.3 10 16.5 L8.954400062561035 16.5 C10.281041145324707 16.2 11.4 15.6 12.6 15.6 C14.442511558532715 15.6 16.1 16.1 17.7 16.9 L17.29199981689453 21.1 C16.132545471191406 22.3 14.3 24 13.1 21.7 C12.936511993408203 21.3 13.5 20 13.6 19.4 L12.215999603271484 23 C11.672595977783203 23.1 10.6 23 10.1 22.7 C9.326496124267578 22.5 8.7 22.2 8.1 22 L6.729599952697754 15.9 C6.234602928161621 15.2 5.8 14.4 5.8 15.2 L5.800800323486328 15.9"></path></svg>