<svg xmlns="http://www.w3.org/2000/svg" viewBox="0 0 24 24"> <path fill="none" stroke="black" stroke-width=".3" stroke-opacity="1.0" filling="0" d="M15.459375381469727 9.4 L15.459375381469727 9.4 C15.346875190734863 9.4 15.2 9.4 15.1 9.4 L15.121874809265137 8.7 C15.262499809265137 8.7 15.5 8.7 15.7 8.7 L15.712499618530273 9.4"></path> <path fill="none" stroke="black" stroke-width=".3" stroke-opacity="1.0" filling="0" d="M17.146875381469727 9.4 L17.146875381469727 9.4 C17.399999618530273 9.3 17.6 9.3 17.8 9.3 L17.821874618530273 9.3 C18.243749618530273 9.5 18.7 9.7 19.1 10 L19.509374618530273 13.2 L19.509374618530273 17.4 C19.256250381469727 17.6 19.1 17.8 18.9 17.9 L18.918750762939453 17.9 C18.440624237060547 17.9 18 17.9 17.5 17.9 L17.484375 13.2 C17.399999618530273 13 17.1 12.7 16.9 12.5 L16.893749237060547 9.4 L16.893749237060547 9.4"></path></svg>