<svg xmlns="http://www.w3.org/2000/svg" viewBox="0 0 24 24"> <path fill="none" stroke="black" stroke-width=".3" stroke-opacity="1.0" filling="0" d="M14.784375190734863 5.8 L14.784375190734863 5.8 C16.081737518310547 6.3 17.1 6.9 17.9 8.2 C18.740833282470703 9.7 17.9 11.9 16.8 13.2 C15.65757942199707 14.5 14.1 15.5 12.1 16.1 L11.071874618530273 16.1 C9.376502990722656 15.5 8.1 14.5 7.3 13.2 C6.447525978088379 11.9 6.2 10.1 7.3 8.2 C8.177318572998047 6.9 9.8 6.3 11.1 6 C12.452799797058105 5.7 14.1 6.3 15.3 7.5 C16.569244384765625 8.7 17.2 10.1 17.2 11.6 C17.231250762939453 13 16.5 14.4 15.3 15.3 C14.07652759552002 16.2 12.5 16.9 11.1 17.1 C9.654720306396484 17.3 7.9 17.1 6.3 16.1 C4.892322063446045 14.9 4.1 13.3 3.8 11.6 L3.8156251907348633 11.6"></path> <path fill="none" stroke="black" stroke-width=".3" stroke-opacity="1.0" filling="0" d="M13.096875190734863 11.6 L13.096875190734863 11.6 C14.326153755187988 11.9 15.3 12.1 16.2 13.1 C17.05982208251953 14.2 17.6 15.6 16.8 16.8 C15.995347023010254 18.1 14.3 19 13.1 19 C11.942737579345703 19 10.7 18.1 9.6 16.8 C8.479833602905273 15.6 8.1 14.1 9.1 12.9 C10.082582473754883 11.1 12.1 11.3 13.1 11.6 L13.096875190734863 11.6"></path> <path fill="none" stroke="black" stroke-width=".3" stroke-opacity="1.0" filling="0" d="M13.096875190734863 14.7 L13.096875190734863 14.7 C14.474529266357422 15.4 15.3 16.3 16.1 17.3 C16.879884719848633 18.3 17.9 19.1 19 20 L19.003124237060547 20 C18.693750381469727 20.2 18.4 20.5 18.1 20.7 C17.759368896484375 20.9 17.3 20.5 17 20.2 C16.506980895996094 19.8 16 19.2 15.6 18.6 C14.345720291137695 17.3 13.3 15.6 11.7 14.7 L11.746874809265137 14.7"></path></svg>