<svg xmlns="http://www.w3.org/2000/svg" viewBox="0 0 24 24"> <path fill="none" stroke="black" stroke-width=".3" stroke-opacity="1.0" filling="0" d="M7.696875095367432 8.9 L7.696875095367432 8.9 C8.34375 9.2 9.2 9.2 9.8 9.8 C10.881397247314453 10.8 10.1 13 8.7 13 C6.313302993774414 13 5.6 10.2 7.7 8.9 L7.696875095367432 8.9"></path> <path fill="none" stroke="black" stroke-width=".3" stroke-opacity="1.0" filling="0" d="M17.821874618530273 9.5 L17.821874618530273 9.5 C19.021743774414062 11.6 17.1 13.3 14.8 13.4 C12.541749954223633 13.4 10.6 11.6 12.1 9.8 C12.484729766845703 9.4 13 9.2 13.8 9 L13.771875381469727 9"></path> <path fill="none" stroke="black" stroke-width=".3" stroke-opacity="1.0" filling="0" d="M16.134374618530273 9.7 L16.134374618530273 9.7 C16.218799591064453 11.2 16.1 13 15.1 14.3 C14.240612983703613 15.5 12.9 16.1 11.5 15.4 C10.035253524780273 14.8 9 13.2 8.7 11.6 C8.3660888671875 9.9 9.3 7.7 11.2 7.7 C12.553733825683594 7.7 13.8 8.7 15.1 9.7 L16.134374618530273 9.7"></path> <path fill="none" stroke="black" stroke-width=".3" stroke-opacity="1.0" filling="0" d="M11.409375190734863 11.4 L11.409375190734863 11.4 C10.354561805725098 12.9 10.3 14 11.4 14.4 C13.235514640808105 15.5 14.2 14.9 14.8 13.1 L14.784375190734863 13.1 C14.780853271484375 13.7 14.8 14.5 14.4 15.1 C14.034698486328125 16 13.4 16 12.7 16.4 C12.022688865661621 16.9 10.6 16.9 9.8 16.4 C9.016860961914062 16 8.6 15.5 7.9 14.8 C6.78652763366699 13.7 6.2 12.2 7.1 10.7 C8.07651138305664 9.3 9.7 8.6 11.4 8.6 L11.409375190734863 11.4"></path> <path fill="none" stroke="black" stroke-width=".3" stroke-opacity="1.0" filling="0" d="M15.375 11.4 L15.375 11.4 C15.009374618530273 11.2 14.6 10.9 14.4 10.6 L14.362500190734863 9.6"></path></svg>