<svg xmlns="http://www.w3.org/2000/svg" viewBox="0 0 24 24"> <path fill="none" height="200px" width="200px"/><path fill="none" stroke="black" stroke-width=".3" stroke-opacity="1.0" filling="0" d="M16.341598510742188 8.1 L16.341598510742188 8.1 C17.0802001951599121 9.3 17.9 10.8 17.4 12.3 C16.861896514892578 13.8 15.9 14.9 14.9 15.8 C13.730415344238281 16.7 12.3 17.1 10.8 17.1 C8.387775421142578 17.1 6.4 16.7 5.2 14.9 C3.954798698425293 12.9 4.7 10.9 7 10.1 C8.482307434082031 9.3 9.7 9.4 11.3 9.7 L11.30880069732666 9.7 C10.489067077636719 9.8 10.6 9.7 11.4 10.1 C13.27780532836914 10.6 14.3 12.2 15 13.9 C15.480907440185547 15.6 16.3 17.3 16.3 19.1 C16.31732940673828 19.8 16.2 21.1 16.3 21.6 C16.369733810424805 22.1 16.5 23 16.4 23.6 C16.29855728149414 25.1 15.3 27 13 27.3 C10.744983673095703 27.6 8.6 26.3 7.3 25.1 C5.931446075439453 23.8 4.8 22.1 4.8 19.6 C4.835828495025635 17.3 5.8 14.8 7 13.1 C8.30245208740234 11.4 10.1 10.4 12 10.3 L11.978400230407715 10.3"/></path> </svg>