<svg xmlns="http://www.w3.org/2000/svg" viewBox="0 0 24 24"> <path fill="none" stroke="black" stroke-width=".3" stroke-opacity="1.0" filling="0" d="M18.102001190185547 17.2 L18.102001190185547 17.2 C17.65796661376953 17.9 17.3 18.7 16.9 19.5 C15.82752799987793 21.4 14.4 22.5 13 22.9 C11.613539695739746 23.4 9.5 24 7.7 23.1 C5.720317840576172 22.1 4.5 20.6 3.8 18.6 L3.3060007095336914 13.2 C3.2704492568969727 11.8 3.4 10.5 4 9.1 C4.575257301330566 7.7 5.2 6.5 6.5 5.6 C7.834699630737305 4.6 10 4.3 12.6 4.9 C14.296566009521484 5.3 15.7 6.5 16.4 8.2 C16.940757751464844 9.8 16.9 11.2 16.9 13.1 L16.913999557495117 18.1 C16.92958641052246 20.2 16 21.5 14.7 22.4 C13.331037521362305 23.3 11.7 23.3 9.7 22.9 L9.699600219726562 18 L9.699600219726562 13.2 C9.450356481933594 11.2 9.5 8.8 10.3 6.8 C11.179500587463379 5.3 12.8 4.2 14.6 4.2 C16.35744857788086 4.2 17.9 5.4 17.4 7.4 L17.367599487304688 13.2 L17.367599487304688 19 C17.1767158374785 22.4 15 22.2 14.2 19 L14.257200241088867 13 L14.257200241088867 8 C13.940400123596191 6.9 13.7 6.5 13.4 6.1 L9.721200942993164 6.1 C9.559200286865234 6.3 9.5 6.5 9.4 6.6 L9.397199630737305 13.2 L9.397199630737305 19 C9.644891792297363 19.3 9.9 19.8 10.2 19.8 C10.5426254272461 19.8 10.8 19.3 11.2 19 L11.168399810791016 13 L11.168399810791016 7.4 C10.951757431030273 6.9 10.6 6.5 10.4 6.1 L13.004400253295898 6.1 C13.23840045928955 6.3 13.6 6.6 13.8 6.9 L13.760400772094727 13 L13.846799850463867 19 C14.026800155639648 19.2 14.4 19.3 14.6 19.5 C14.87061882019043 19.8 14.9 20.1 15.1 20.4 L15.27239990234375 22.8 C15.121200561523438 22.8 15 22.8 14.9 22.8 L12.615599632263184 17.4 L10.153200149536133 12.9 L7.647600173950195 8.6 C7.438800950622559 8.6 7.3 8.5 7.1 8.4 L7.712399959564209 8.4"></path></svg>